<?xml version="1.0" encoding="UTF-8"?>
<!DOCTYPE svg PUBLIC "-//W3C//DTD SVG 1.0//EN" "http://www.w3.org/TR/2001/REC-SVG-20010904/DTD/svg10.dtd">
<!-- Creator: CorelDRAW X7 -->
<svg xmlns="http://www.w3.org/2000/svg" xml:space="preserve" width="1000px" height="666px" version="1.0" style="shape-rendering:geometricPrecision; text-rendering:geometricPrecision; image-rendering:optimizeQuality; fill-rule:evenodd; clip-rule:evenodd"
viewBox="0 0 999 666"
 xmlns:xlink="http://www.w3.org/1999/xlink">
 <defs>
  <style type="text/css">
   <![CDATA[
    .fil0 {fill:#D3E0ED}
   ]]>
  </style>
 </defs>
 <g id="Layer_x0020_1">
  <metadata id="CorelCorpID_0Corel-Layer"/>
  <g id="_1931426932112">
   <g>
    <path class="fil0" d="M232 546c0,0 0,0 0,0l-79 0c-84,0 -153,-69 -153,-153 0,-75 54,-138 125,-151 16,-135 133,-242 272,-242 95,0 181,48 231,129 5,5 8,11 8,19 0,16 -13,28 -29,28 0,0 0,0 0,0 -1,0 -1,0 -2,0 0,0 -3,0 -3,0 -119,0 -216,95 -218,212 -1,15 -13,28 -29,28 -52,0 -95,43 -95,96 0,0 0,4 0,4 1,8 -2,16 -8,21 -5,6 -12,9 -20,9zm165 -489c-117,0 -214,95 -216,212 -1,15 -13,28 -29,28 -52,0 -95,43 -95,96 0,53 43,96 96,96l52 0c9,-64 60,-116 123,-128 14,-120 107,-217 224,-238 -40,-42 -95,-66 -155,-66z"/>
   </g>
   <g>
    <path class="fil0" d="M878 666l0 0 -265 -1c-7,1 -18,1 -28,0l-229 0c-82,0 -149,-64 -153,-146 0,-4 0,-5 0,-7 0,-75 54,-138 125,-151 16,-136 133,-242 272,-242 2,0 4,0 6,0 150,4 267,124 267,273 0,11 -1,22 -2,32 68,-4 128,52 128,121 0,66 -54,121 -121,121zm-276 -490c-119,0 -216,95 -218,212 -1,15 -13,28 -29,28 -52,0 -95,43 -95,96 0,0 0,4 0,4 3,52 45,92 96,92l230 0c11,1 17,1 25,0l267 0c35,0 64,-28 64,-63 0,-35 -29,-64 -64,-64 -11,0 -21,3 -30,8 -11,5 -23,4 -32,-3 -9,-7 -13,-20 -9,-31 6,-20 9,-41 9,-63 0,-118 -92,-212 -210,-216 -1,0 -4,0 -4,0z"/>
   </g>
  </g>
 </g>
</svg>
