<?xml version="1.0" encoding="UTF-8"?>
<!DOCTYPE svg PUBLIC "-//W3C//DTD SVG 1.0//EN" "http://www.w3.org/TR/2001/REC-SVG-20010904/DTD/svg10.dtd">
<!-- Creator: CorelDRAW X7 -->
<svg xmlns="http://www.w3.org/2000/svg" xml:space="preserve" width="1000px" height="1000px" version="1.0" style="shape-rendering:geometricPrecision; text-rendering:geometricPrecision; image-rendering:optimizeQuality; fill-rule:evenodd; clip-rule:evenodd"
viewBox="0 0 616 616"
 xmlns:xlink="http://www.w3.org/1999/xlink">
 <defs>
  <style type="text/css">
   <![CDATA[
    .fil0 {fill:#D3E0ED}
   ]]>
  </style>
 </defs>
 <g id="Layer_x0020_1">
  <metadata id="CorelCorpID_0Corel-Layer"/>
  <path class="fil0" d="M399 516c10,10 10,25 0,34 -43,43 -102,66 -164,66 -63,0 -122,-24 -166,-68 -45,-44 -69,-103 -69,-165l0 -7c0,-81 68,-159 128,-228 41,-46 83,-95 83,-124 0,-13 10,-24 24,-24 13,0 24,11 24,24 0,31 42,80 84,127 7,8 15,17 23,26 8,10 7,25 -3,34 -10,9 -25,7 -34,-3 -7,-8 -15,-17 -22,-26 -29,-32 -55,-61 -73,-90 -17,28 -42,57 -70,88 -54,62 -116,133 -116,196l0 7c0,102 84,185 187,185 50,0 96,-18 130,-52 10,-9 25,-9 34,0l0 0zm193 -89c-9,0 -22,-8 -34,-24 -11,-12 -26,-19 -43,-19 -16,0 -32,7 -42,19 -13,16 -26,24 -35,24 -9,0 -22,-8 -34,-24 -11,-12 -26,-19 -43,-19 -17,0 -32,7 -42,19 -13,16 -26,24 -35,24 -9,0 -22,-8 -34,-24 -11,-12 -26,-19 -43,-19 -17,0 -32,7 -42,19 -13,16 -26,24 -35,24 -13,0 -24,11 -24,24 0,14 11,24 24,24 25,0 49,-13 72,-41 1,-1 3,-2 5,-2 2,0 4,1 6,2 22,28 46,41 71,41 25,0 49,-13 72,-41 1,-1 3,-2 5,-2 2,0 5,1 6,2 22,28 47,41 71,41 25,0 49,-13 72,-41 1,-1 3,-2 5,-2 3,0 5,1 6,2 23,28 47,41 71,41 14,0 24,-10 24,-24 0,-13 -10,-24 -24,-24zm-273 -144c-13,15 -26,24 -35,24 -13,0 -24,11 -24,24 0,13 11,24 24,24 25,0 49,-14 72,-41 1,-1 3,-2 5,-2 2,0 5,1 6,2 22,27 47,41 71,41 25,0 49,-14 72,-41 1,-1 3,-2 5,-2 3,0 5,1 6,2 23,27 47,41 71,41 14,0 24,-11 24,-24 0,-13 -10,-24 -24,-24 -9,0 -22,-9 -34,-24 -11,-12 -26,-19 -43,-19 -16,0 -32,7 -42,19 -13,15 -26,24 -35,24 -9,0 -22,-9 -34,-24 -11,-12 -26,-19 -43,-19 -17,0 -32,7 -42,19zm0 0z"/>
 </g>
</svg>
