<?xml version="1.0" encoding="UTF-8"?>
<!DOCTYPE svg PUBLIC "-//W3C//DTD SVG 1.0//EN" "http://www.w3.org/TR/2001/REC-SVG-20010904/DTD/svg10.dtd">
<!-- Creator: CorelDRAW X7 -->
<svg xmlns="http://www.w3.org/2000/svg" xml:space="preserve" width="1100px" height="1162px" version="1.0" style="shape-rendering:geometricPrecision; text-rendering:geometricPrecision; image-rendering:optimizeQuality; fill-rule:evenodd; clip-rule:evenodd"
viewBox="0 0 1100 1162"
 xmlns:xlink="http://www.w3.org/1999/xlink">
 <defs>
  <style type="text/css">
   <![CDATA[
    .fil0 {fill:#D3E0ED}
   ]]>
  </style>
 </defs>
 <g id="Layer_x0020_1">
  <metadata id="CorelCorpID_0Corel-Layer"/>
  <g id="_1931426504800">
   <g>
    <path class="fil0" d="M51 637l831 0c120,0 218,-98 218,-218 0,-120 -98,-218 -218,-218 -12,0 -89,1 -146,57 -38,37 -58,89 -58,153 0,28 23,51 51,51 29,0 52,-23 52,-51 0,-35 8,-62 26,-80 27,-27 70,-28 74,-28 0,0 0,0 1,0 63,0 115,52 115,116 0,64 -52,116 -115,116l-831 0c-28,0 -51,23 -51,51 0,28 23,51 51,51z"/>
    <path class="fil0" d="M51 437l396 0c120,0 218,-98 218,-219 0,-120 -97,-218 -217,-218 -12,0 -89,1 -147,57 -38,37 -57,89 -57,153 0,28 22,51 51,51 28,0 51,-23 51,-51 0,-35 9,-62 27,-79 27,-27 70,-28 73,-29 0,1 0,0 1,0 64,0 116,52 116,116 0,64 -52,116 -116,116l-396 0c-28,0 -51,23 -51,51 0,29 23,52 51,52z"/>
    <path class="fil0" d="M882 726l-831 0c-28,0 -51,23 -51,51 0,28 23,51 51,51l831 0c63,0 115,52 115,116 0,64 -52,116 -115,116 -1,0 -1,0 -1,0 -4,0 -47,-1 -74,-28 -18,-18 -26,-45 -26,-80 0,-28 -23,-51 -52,-51 -28,0 -51,23 -51,51 0,64 20,116 58,153 55,54 128,57 144,57 1,0 2,0 2,0 120,0 218,-98 218,-218 0,-120 -98,-218 -218,-218z"/>
   </g>
  </g>
 </g>
</svg>
